<?xml version="1.0" encoding="utf-8"?>
<!-- Generator: Adobe Illustrator 16.0.4, SVG Export Plug-In . SVG Version: 6.00 Build 0)  -->
<!DOCTYPE svg PUBLIC "-//W3C//DTD SVG 1.1//EN" "http://www.w3.org/Graphics/SVG/1.1/DTD/svg11.dtd">
<svg version="1.1" id="gr" class="scaling-svg sub-logo-svg" xmlns="http://www.w3.org/2000/svg" xmlns:xlink="http://www.w3.org/1999/xlink" x="0px" y="0px"
	 width="500px" height="500px" viewBox="0 0 500 500" enable-background="new 0 0 500 500" xml:space="preserve">
<g id="gr_81_">
	<path id="gr_9_" fill="#585858" d="M500,249.997C500,388.068,388.066,500,250,500S0,388.068,0,249.997C0,111.931,111.934,0,250,0
		S500,111.931,500,249.997z"/>
	<g id="gr_6_" display="none">
		<polygon display="inline" fill="#FFFFFF" points="168.041,239.013 109.574,157.493 109.574,239.013 99.781,239.013
			99.781,140.001 109.102,140.001 179.937,239.013 		"/>
		<polygon display="inline" fill="#FFFFFF" points="268.312,239.013 258.52,239.013 258.52,201.174 218.461,140.001
			230.213,140.001 263.392,190.808 296.069,140.001 307.792,140.001 268.312,201.159 		"/>
		<path display="inline" fill="#FFFFFF" d="M372.24,239.013c-12.147,0-25.326-5.47-33.556-13.94l-2.499-2.581l6.956-7.038
			l2.547,2.716c6.214,6.647,16.634,10.94,26.552,10.94c14.916,0,24.535-6.3,24.535-16.04c0.096-11.978-8.964-15.619-23.89-20.197
			c-14.201-4.356-30.304-9.286-30.304-28.886c0-14.347,13.063-23.985,32.514-23.985c9.078,0,19.305,2.856,26.069,7.274l2.971,1.949
			l-5.094,8.278l-3.077-2.002c-5.21-3.392-13.401-5.586-20.869-5.586c-13.807,0-22.73,5.527-22.73,14.071
			c0,11.645,8.963,14.969,23.561,19.44c13.719,4.192,30.796,9.421,30.642,29.667C406.567,228.589,392.771,239.013,372.24,239.013z"
			/>
		<g display="inline">
			<polygon fill="#8DCEC1" points="122.792,344.248 113.009,344.248 113.009,319.317 88.368,319.317 88.368,309.404
				113.009,309.404 113.009,284.475 122.792,284.475 122.792,309.404 147.433,309.404 147.433,319.317 122.792,319.317 			"/>
			<path fill="#8DCEC1" d="M119.193,315.676v24.931h-2.586v-24.931H91.967v-2.624h24.641v-24.936h2.586v24.936h24.641v2.624H119.193
				z"/>
		</g>
		<polygon display="inline" fill="#FFFFFF" points="198.577,359.999 188.804,359.999 188.804,270.899 169.354,270.899
			169.354,260.986 198.577,260.986 		"/>
		<path display="inline" fill="#FFFFFF" d="M279.581,359.999c-25.026,0-39.383-18.071-39.383-49.571
			c0-31.424,14.356-49.441,39.383-49.441c25.114,0,39.509,18.018,39.509,49.441C319.09,341.928,304.695,359.999,279.581,359.999z
			 M279.581,270.899c-24.448,0-29.581,21.501-29.581,39.528c0,18.094,5.133,39.662,29.581,39.662
			c24.563,0,29.716-21.568,29.716-39.662C309.297,292.4,304.145,270.899,279.581,270.899z"/>
		<polygon display="inline" fill="#FFFFFF" points="370.146,359.999 359.35,359.999 399.939,270.899 356.012,270.899
			356.012,285.594 346.22,285.594 346.22,260.986 411.622,260.986 411.295,269.429 		"/>
		<path display="inline" fill="#8DCEC1" d="M298.81,288.474c-1.795-2.991-4.197-5.528-7.381-7.309l-25.925,56.938
			c2.402,1.891,5.355,3.266,8.974,3.937L298.81,288.474z"/>
	</g>
	<g id="gr_82_">
		<polygon fill="#FFFFFF" points="268.148,238.927 258.355,238.927 258.355,201.121 218.336,140.001 230.077,140.001
			263.228,190.759 295.877,140.001 307.589,140.001 268.148,201.106 		"/>
		<path fill="#FFFFFF" d="M371.979,238.927c-12.146,0-25.297-5.471-33.518-13.937l-2.508-2.576l6.946-7.033l2.547,2.716
			c6.204,6.643,16.624,10.926,26.532,10.926c14.887,0,24.506-6.285,24.506-16.021c0.097-11.968-8.953-15.61-23.869-20.178
			c-14.183-4.352-30.266-9.282-30.266-28.857c0-14.332,13.054-23.966,32.475-23.966c9.069,0,19.296,2.856,26.04,7.27l2.972,1.944
			l-5.094,8.273l-3.068-1.997c-5.2-3.396-13.392-5.581-20.85-5.581c-13.786,0-22.691,5.518-22.691,14.057
			c0,11.631,8.934,14.954,23.512,19.416c13.72,4.197,30.776,9.417,30.623,29.639C406.269,228.507,392.491,238.927,371.979,238.927z"
			/>
		<g>
			<polygon fill="#ACD9CE" points="122.763,344.064 112.979,344.064 112.979,319.154 88.368,319.154 88.368,309.251
				112.979,309.251 112.979,284.34 122.763,284.34 122.763,309.251 147.375,309.251 147.375,319.154 122.763,319.154 			"/>
		</g>
		<rect x="179.715" y="260.871" fill="#FFFFFF" width="9.793" height="98.925"/>
		<path fill="#FFFFFF" d="M273.252,359.999c-27.622,0-50.092-22.21-50.092-49.523c0-27.236,22.47-49.397,50.092-49.397
			s50.092,22.161,50.092,49.397C323.344,337.789,300.874,359.999,273.252,359.999z M273.252,270.981
			c-22.229,0-40.309,17.719-40.309,39.494c0,21.848,18.08,39.629,40.309,39.629c22.229,0,40.309-17.781,40.309-39.629
			C313.561,288.7,295.481,270.981,273.252,270.981z"/>
		<polygon fill="#FFFFFF" points="369.876,359.796 359.1,359.796 399.64,270.779 345.968,270.779 345.968,260.871 411.314,260.871
			410.986,269.312 		"/>
		<path fill="#FCE1D8" d="M283.141,310.654c0,5.528-4.429,10.01-9.879,10.01l0,0c-5.461,0-9.88-4.481-9.88-10.01l0,0
			c0-5.514,4.419-9.991,9.88-9.991l0,0C278.712,300.663,283.141,305.141,283.141,310.654L283.141,310.654z"/>
		<polygon fill="#FFFFFF" points="168.031,239.013 109.564,157.493 109.564,239.013 99.771,239.013 99.771,140.001 109.092,140.001
			179.928,239.013 		"/>
	</g>
</g>
</svg>
