<?xml version="1.0" encoding="iso-8859-1"?>
<!-- Generator: Adobe Illustrator 16.0.0, SVG Export Plug-In . SVG Version: 6.00 Build 0)  -->
<!DOCTYPE svg PUBLIC "-//W3C//DTD SVG 1.1//EN" "http://www.w3.org/Graphics/SVG/1.1/DTD/svg11.dtd">
<svg version="1.1" id="Capa_1" xmlns="http://www.w3.org/2000/svg" xmlns:xlink="http://www.w3.org/1999/xlink" x="0px" y="0px"
	 width="99.012px" height="99.012px" viewBox="0 0 99.012 99.012" style="enable-background:new 0 0 99.012 99.012;"
	 xml:space="preserve">
<g>
	<g>
		<path d="M25.08,15.648c-0.478-0.478-1.135-0.742-1.805-0.723c-0.675,0.017-1.314,0.309-1.768,0.808
			c-14.829,16.325-6.762,51.623-5.916,55.115L0.723,85.717C0.26,86.18,0,86.808,0,87.463c0,0.654,0.26,1.283,0.723,1.746
			l8.958,8.957c0.482,0.48,1.114,0.723,1.746,0.723c0.631,0,1.264-0.24,1.745-0.723l14.865-14.864
			c7.237,1.859,16.289,2.968,24.28,2.968c9.599,0,22.739-1.543,30.836-8.886c0.5-0.454,0.793-1.093,0.809-1.769
			c0.018-0.676-0.245-1.328-0.723-1.805L25.08,15.648z"/>
		<path d="M46.557,30.345c0.482,0.482,1.114,0.723,1.746,0.723c0.632,0,1.264-0.241,1.746-0.724l18.428-18.428
			c1.305-1.305,2.023-3.04,2.023-4.885c0-1.846-0.719-3.582-2.023-4.886c-1.305-1.305-3.039-2.022-4.885-2.022
			c-1.845,0-3.581,0.718-4.887,2.022L40.277,20.574c-0.964,0.964-0.964,2.527,0,3.492L46.557,30.345z"/>
		<path d="M96.99,30.661c-1.305-1.305-3.039-2.024-4.885-2.024c-1.847,0-3.582,0.718-4.886,2.023L68.79,49.089
			c-0.464,0.463-0.724,1.091-0.724,1.746s0.26,1.282,0.724,1.746l6.28,6.278c0.481,0.482,1.113,0.724,1.746,0.724
			c0.631,0,1.264-0.241,1.746-0.724l18.43-18.429C99.686,37.735,99.686,33.353,96.99,30.661z"/>
	</g>
</g>
<g>
</g>
<g>
</g>
<g>
</g>
<g>
</g>
<g>
</g>
<g>
</g>
<g>
</g>
<g>
</g>
<g>
</g>
<g>
</g>
<g>
</g>
<g>
</g>
<g>
</g>
<g>
</g>
<g>
</g>
</svg>
